<svg width="40" height="50" viewBox="0 0 40 50" fill="none" xmlns="http://www.w3.org/2000/svg">
<path fill-rule="evenodd" clip-rule="evenodd" d="M29.3223 0H4V50H40V10.6777L29.3223 0Z" fill="#C4C4C4"/>
<rect y="22" width="31" height="19" rx="2" fill="#3244E6"/>
<path d="M4.7429 36.0938C5.24574 36.0938 5.67614 35.6761 5.6804 35.1562C5.67614 34.6449 5.24574 34.2273 4.7429 34.2273C4.22301 34.2273 3.80114 34.6449 3.8054 35.1562C3.80114 35.6761 4.22301 36.0938 4.7429 36.0938ZM9.70206 36.1151C10.8271 36.1151 11.3342 35.446 11.5771 34.9688H11.6708V36H13.1879V27.2727H11.641V30.5369H11.5771C11.3427 30.0639 10.8612 29.3693 9.70632 29.3693C8.19354 29.3693 7.00462 30.554 7.00462 32.7358C7.00462 34.892 8.15945 36.1151 9.70206 36.1151ZM10.1325 34.8494C9.11399 34.8494 8.57706 33.9545 8.57706 32.7273C8.57706 31.5085 9.10547 30.6349 10.1325 30.6349C11.1254 30.6349 11.6708 31.4574 11.6708 32.7273C11.6708 33.9972 11.1168 34.8494 10.1325 34.8494ZM17.6868 36.1278C19.6044 36.1278 20.8232 34.777 20.8232 32.7528C20.8232 30.7244 19.6044 29.3693 17.6868 29.3693C15.7692 29.3693 14.5504 30.7244 14.5504 32.7528C14.5504 34.777 15.7692 36.1278 17.6868 36.1278ZM17.6953 34.892C16.6342 34.892 16.1143 33.946 16.1143 32.7486C16.1143 31.5511 16.6342 30.5923 17.6953 30.5923C18.7393 30.5923 19.2592 31.5511 19.2592 32.7486C19.2592 33.946 18.7393 34.892 17.6953 34.892ZM24.9876 36.1278C26.6325 36.1278 27.6808 35.152 27.7915 33.7628H26.3171C26.185 34.4659 25.6779 34.8707 25.0004 34.8707C24.0373 34.8707 23.4151 34.0653 23.4151 32.7273C23.4151 31.4062 24.0501 30.6136 25.0004 30.6136C25.7418 30.6136 26.1978 31.0909 26.3171 31.7216H27.7915C27.685 30.3026 26.5771 29.3693 24.979 29.3693C23.0614 29.3693 21.8512 30.7543 21.8512 32.7528C21.8512 34.7344 23.0316 36.1278 24.9876 36.1278Z" fill="white"/>
</svg>
