<svg width="42" height="50" viewBox="0 0 42 50" fill="none" xmlns="http://www.w3.org/2000/svg">
<path fill-rule="evenodd" clip-rule="evenodd" d="M18 49H30C32.8567 49 34.8986 48.9979 36.4504 48.7892C37.9734 48.5845 38.8736 48.1974 39.5355 47.5355C40.1974 46.8736 40.5845 45.9734 40.7892 44.4504C40.9979 42.8986 41 40.8567 41 38V14.9706C41 12.4365 40.9823 11.448 40.6194 10.5719C40.2565 9.69575 39.57 8.98425 37.7782 7.19239L34.8076 4.22183C33.0157 2.42995 32.3043 1.7435 31.4281 1.3806C30.552 1.0177 29.5635 1 27.0294 1H18C15.1433 1 13.1014 1.00212 11.5496 1.21075C10.0266 1.41551 9.12638 1.80256 8.46447 2.46447C7.80256 3.12638 7.41551 4.02662 7.21075 5.54962C7.00212 7.10138 7 9.1433 7 12V38C7 40.8567 7.00212 42.8986 7.21075 44.4504C7.41551 45.9734 7.80256 46.8736 8.46447 47.5355C9.12638 48.1974 10.0266 48.5845 11.5496 48.7892C13.1014 48.9979 15.1433 49 18 49ZM30 50H18C12.3431 50 9.51472 50 7.75736 48.2426C6 46.4853 6 43.6569 6 38V12C6 6.34315 6 3.51472 7.75736 1.75736C9.51472 0 12.3431 0 18 0H27.0294C29.4819 0 30.7082 0 31.8108 0.456723C32.9134 0.913446 33.7805 1.78054 35.5147 3.51472L38.4853 6.48529C40.2194 8.21945 41.0866 9.08656 41.5433 10.1892C42 11.2918 42 12.5181 42 14.9706V38C42 43.6569 42 46.4853 40.2426 48.2426C38.4853 50 35.6569 50 30 50Z" fill="#C8C8C8"/>
<path d="M0 31C0 26.286 0 23.9289 1.46447 22.4645C2.92893 21 5.28595 21 10 21H26C30.714 21 33.0711 21 34.5355 22.4645C36 23.9289 36 26.286 36 31V32C36 36.714 36 39.0711 34.5355 40.5355C33.0711 42 30.714 42 26 42H10C5.28595 42 2.92893 42 1.46447 40.5355C0 39.0711 0 36.714 0 32V31Z" fill="#3244E5"/>
<path d="M6.7429 36.0938C7.24574 36.0938 7.67614 35.6761 7.6804 35.1562C7.67614 34.6449 7.24574 34.2273 6.7429 34.2273C6.22301 34.2273 5.80114 34.6449 5.8054 35.1562C5.80114 35.6761 6.22301 36.0938 6.7429 36.0938ZM11.7021 36.1151C12.8271 36.1151 13.3342 35.446 13.5771 34.9688H13.6708V36H15.1879V27.2727H13.641V30.5369H13.5771C13.3427 30.0639 12.8612 29.3693 11.7063 29.3693C10.1935 29.3693 9.00462 30.554 9.00462 32.7358C9.00462 34.892 10.1594 36.1151 11.7021 36.1151ZM12.1325 34.8494C11.114 34.8494 10.5771 33.9545 10.5771 32.7273C10.5771 31.5085 11.1055 30.6349 12.1325 30.6349C13.1254 30.6349 13.6708 31.4574 13.6708 32.7273C13.6708 33.9972 13.1168 34.8494 12.1325 34.8494ZM19.6868 36.1278C21.6044 36.1278 22.8232 34.777 22.8232 32.7528C22.8232 30.7244 21.6044 29.3693 19.6868 29.3693C17.7692 29.3693 16.5504 30.7244 16.5504 32.7528C16.5504 34.777 17.7692 36.1278 19.6868 36.1278ZM19.6953 34.892C18.6342 34.892 18.1143 33.946 18.1143 32.7486C18.1143 31.5511 18.6342 30.5923 19.6953 30.5923C20.7393 30.5923 21.2592 31.5511 21.2592 32.7486C21.2592 33.946 20.7393 34.892 19.6953 34.892ZM26.9876 36.1278C28.6325 36.1278 29.6808 35.152 29.7915 33.7628H28.3171C28.185 34.4659 27.6779 34.8707 27.0004 34.8707C26.0373 34.8707 25.4151 34.0653 25.4151 32.7273C25.4151 31.4062 26.0501 30.6136 27.0004 30.6136C27.7418 30.6136 28.1978 31.0909 28.3171 31.7216H29.7915C29.685 30.3026 28.5771 29.3693 26.979 29.3693C25.0614 29.3693 23.8512 30.7543 23.8512 32.7528C23.8512 34.7344 25.0316 36.1278 26.9876 36.1278Z" fill="white"/>
</svg>
