<svg width="123" height="22" viewBox="0 0 123 22" fill="none" xmlns="http://www.w3.org/2000/svg">
<path d="M7.14197 0.0842285C8.26179 0.0842285 9.40649 0.334599 10.601 0.860368C11.7954 1.38614 12.7162 2.01205 13.3881 2.76315L11.248 5.69244C10.601 5.06652 9.90419 4.56579 9.10787 4.21527C8.31156 3.86476 7.56501 3.66447 6.84335 3.66447C6.22123 3.66447 5.72353 3.78965 5.32537 4.06505C4.9521 4.34046 4.75302 4.66593 4.75302 5.09156C4.75302 5.41703 4.85256 5.69244 5.05164 5.91777C5.25071 6.1431 5.52445 6.34339 5.87284 6.51865C6.22123 6.66886 6.61938 6.81908 7.06731 6.9693C7.51524 7.09449 7.98805 7.24471 8.46087 7.39493C8.95856 7.54515 9.43138 7.69537 9.92908 7.87062C10.4268 8.04588 10.8996 8.27121 11.3475 8.54661C11.7954 8.82202 12.1936 9.12246 12.542 9.498C12.8904 9.84852 13.1641 10.2992 13.3633 10.85C13.5623 11.4008 13.6619 12.0017 13.6619 12.6777C13.6619 13.3787 13.5126 14.0547 13.2139 14.7056C12.9153 15.3566 12.5171 15.9325 11.9696 16.4582C11.4471 16.984 10.7752 17.3846 9.92908 17.6851C9.10787 17.9855 8.21202 18.1357 7.21662 18.1357C5.87284 18.1357 4.52905 17.8102 3.16038 17.1842C1.79171 16.5583 0.746547 15.7572 0 14.8058L2.36407 12.1018C3.11061 12.878 3.85716 13.4789 4.62859 13.9045C5.40002 14.3301 6.271 14.5304 7.21662 14.5304C8.01294 14.5304 8.63506 14.3551 9.13276 14.0296C9.63046 13.7042 9.85442 13.2535 9.85442 12.7027C9.85442 12.4023 9.75488 12.1269 9.5558 11.8765C9.35672 11.6512 9.08299 11.4509 8.7346 11.3006C8.38621 11.1504 8.01294 11.0252 7.56501 10.9001C7.11708 10.7749 6.66915 10.6497 6.17146 10.4995C5.67376 10.3743 5.20094 10.2241 4.70325 10.0488C4.20555 9.87355 3.75762 9.67326 3.30969 9.42289C2.86176 9.17253 2.48849 8.87209 2.1401 8.52158C1.79171 8.17106 1.51798 7.74544 1.3189 7.21967C1.11982 6.6939 1.02028 6.06799 1.02028 5.392C1.02028 3.8898 1.59263 2.63797 2.73734 1.61146C3.88204 0.584963 5.37514 0.0842285 7.14197 0.0842285Z" fill="#ffffff"/>
<path d="M22.9433 5.5675H26.4521V17.8605H22.9433V16.4084C22.5949 16.9341 22.1222 17.3347 21.5249 17.6602C20.9277 17.9856 20.2807 18.1109 19.6087 18.1109C18.0659 18.1109 16.8466 17.6101 15.9507 16.6087C15.0549 15.6072 14.6069 14.2552 14.6069 12.5027V5.5675H18.1156V11.9268C18.1156 12.7781 18.3397 13.429 18.7626 13.8796C19.1858 14.3554 19.758 14.5806 20.5046 14.5806C20.9775 14.5806 21.4502 14.4555 21.8733 14.2051C22.3213 13.9548 22.6696 13.6292 22.9185 13.2037V5.5675H22.9433Z" fill="#ffffff"/>
<path d="M35.1644 5.3165C36.2096 5.3165 37.1552 5.5919 38.0263 6.16774C38.8972 6.74359 39.594 7.49469 40.0917 8.49615C40.5894 9.49762 40.8382 10.5492 40.8382 11.7008C40.8382 12.8525 40.5894 13.9292 40.0917 14.9306C39.594 15.907 38.9221 16.6832 38.0263 17.259C37.1552 17.8349 36.2096 18.1102 35.1644 18.1102C34.3931 18.1102 33.6714 17.96 32.9995 17.6346C32.3276 17.309 31.8548 16.9084 31.5562 16.4077V21.9158H28.0474V5.56686H31.5562V7.01899C31.8548 6.51826 32.3276 6.09263 32.9995 5.79219C33.6714 5.49175 34.3931 5.3165 35.1644 5.3165ZM34.3931 14.7553C35.2392 14.7553 35.9608 14.4549 36.5332 13.8791C37.1055 13.3032 37.4041 12.5771 37.4041 11.7008C37.4041 10.8246 37.1055 10.1235 36.5332 9.52265C35.9608 8.94681 35.2392 8.64637 34.3931 8.64637C33.7958 8.64637 33.2484 8.79659 32.7257 9.07199C32.2032 9.37243 31.8051 9.72295 31.5562 10.1986V13.203C31.8299 13.6788 32.2032 14.0543 32.7257 14.3297C33.2484 14.6051 33.7958 14.7553 34.3931 14.7553Z" fill="#ffffff"/>
<path d="M53.5226 11.1751C53.5226 11.6758 53.4978 12.1265 53.423 12.5521H44.6387C44.7881 13.3783 45.1613 14.0042 45.6839 14.4549C46.2314 14.8805 46.9282 15.1058 47.7493 15.1058C48.2968 15.1058 48.8194 14.9807 49.3419 14.7553C49.8396 14.53 50.213 14.2045 50.412 13.854L53.1494 15.5315C52.7015 16.3576 52.0047 16.9836 51.0341 17.4343C50.0637 17.8849 48.9438 18.1102 47.6747 18.1102C45.883 18.1102 44.3649 17.4844 43.1207 16.2325C41.8765 14.9807 41.2544 13.4534 41.2544 11.6508C41.2544 9.87317 41.8764 8.37097 43.0959 7.14417C44.3152 5.91738 45.8332 5.3165 47.6 5.3165C49.2424 5.3165 50.6359 5.89234 51.7806 7.01899C52.9503 8.14564 53.5226 9.52265 53.5226 11.1751ZM44.6885 10.2988H50.0139C49.9392 9.69791 49.6655 9.17214 49.1678 8.77155C48.6701 8.37097 48.0977 8.17067 47.4507 8.17067C46.7291 8.17067 46.1318 8.34593 45.659 8.72148C45.1862 9.09703 44.8626 9.6228 44.6885 10.2988Z" fill="#ffffff"/>
<path d="M61.0624 5.3165C61.6845 5.3165 62.1822 5.39161 62.5555 5.54183L62.3565 8.84666C61.8338 8.67141 61.3113 8.57126 60.7886 8.57126C60.3407 8.57126 59.868 8.74652 59.3453 9.07199C58.8228 9.42251 58.3997 9.84813 58.126 10.424V17.8598H54.6172V5.56686H58.126V7.01899C58.3997 6.51826 58.8476 6.09263 59.42 5.79219C59.9923 5.49175 60.5398 5.3165 61.0624 5.3165Z" fill="#ffffff"/>
<path d="M63.4565 0.335266H67.1395V14.3057H75.1276V17.8609H63.4565V0.335266Z" fill="#ffffff"/>
<path d="M87.4933 11.1751C87.4933 11.6758 87.4685 12.1265 87.3937 12.5521H78.6094C78.7836 13.3783 79.132 14.0042 79.6546 14.4549C80.2021 14.8805 80.8989 15.1058 81.72 15.1058C82.2675 15.1058 82.7901 14.9807 83.3126 14.7553C83.8103 14.53 84.1837 14.2045 84.3827 13.854L87.1201 15.5315C86.6722 16.3576 85.9754 16.9836 85.0048 17.4343C84.0344 17.8849 82.9145 18.1102 81.6454 18.1102C79.8537 18.1102 78.3356 17.4844 77.0914 16.2325C75.8472 14.9807 75.2251 13.4534 75.2251 11.6508C75.2251 9.87317 75.8471 8.37097 77.0666 7.14417C78.2859 5.91738 79.8039 5.3165 81.5707 5.3165C83.2131 5.3165 84.6066 5.89234 85.7513 7.01899C86.921 8.14564 87.4933 9.52265 87.4933 11.1751ZM78.6592 10.2988H83.9846C83.9099 9.69791 83.6362 9.17214 83.1385 8.77155C82.6408 8.37097 82.0684 8.17067 81.4214 8.17067C80.6998 8.17067 80.1025 8.34593 79.6297 8.72148C79.1569 9.09703 78.8333 9.6228 78.6592 10.2988Z" fill="#ffffff"/>
<path d="M97.2464 5.56686H100.755V17.8598H97.2464V16.4077C96.9478 16.9084 96.4501 17.3341 95.8031 17.6346C95.1311 17.96 94.4095 18.1102 93.638 18.1102C92.5929 18.1102 91.6224 17.8349 90.7514 17.259C89.8805 16.6832 89.1837 15.907 88.686 14.9306C88.1883 13.9541 87.9395 12.8776 87.9395 11.7008C87.9395 9.92324 88.4869 8.42104 89.6067 7.16921C90.7266 5.91738 92.0703 5.3165 93.638 5.3165C94.4095 5.3165 95.1063 5.46672 95.7781 5.79219C96.4501 6.11767 96.9228 6.51826 97.2464 7.01899V5.56686ZM94.4095 14.7553C95.0068 14.7553 95.5542 14.6051 96.0768 14.3297C96.5994 14.0543 96.9726 13.6788 97.2464 13.2281V10.2237C96.9726 9.74798 96.5994 9.37243 96.0768 9.09703C95.5542 8.79659 95.0068 8.64637 94.4095 8.64637C93.5385 8.64637 92.8417 8.94681 92.2445 9.52265C91.6472 10.0985 91.3736 10.8246 91.3736 11.7008C91.3736 12.5771 91.6722 13.3032 92.2445 13.8791C92.8417 14.4549 93.5634 14.7553 94.4095 14.7553Z" fill="#ffffff"/>
<path d="M108.797 5.3165C109.419 5.3165 109.917 5.39161 110.29 5.54183L110.091 8.84666C109.569 8.67141 109.046 8.57126 108.524 8.57126C108.076 8.57126 107.603 8.74652 107.08 9.07199C106.558 9.42251 106.135 9.84813 105.861 10.424V17.8598H102.352V5.56686H105.861V7.01899C106.135 6.51826 106.582 6.09263 107.13 5.79219C107.702 5.46672 108.275 5.3165 108.797 5.3165Z" fill="#ffffff"/>
<path d="M117.957 5.3165C119.5 5.3165 120.719 5.81723 121.59 6.8187C122.486 7.82016 122.909 9.17214 122.909 10.8997V17.8598H119.401V11.5005C119.401 10.6493 119.201 9.99835 118.778 9.52265C118.355 9.04696 117.783 8.82163 117.061 8.82163C116.564 8.82163 116.116 8.94681 115.668 9.19718C115.22 9.44754 114.871 9.79806 114.623 10.2237V17.8598H111.114V5.56686H114.623V7.01899C114.946 6.49322 115.419 6.09263 116.016 5.76716C116.613 5.46672 117.26 5.3165 117.957 5.3165Z" fill="#ffffff"/>
</svg>
