<svg width="40" height="50" viewBox="0 0 40 50" fill="none" xmlns="http://www.w3.org/2000/svg">
<path fill-rule="evenodd" clip-rule="evenodd" d="M29.3223 0H4V50H40V10.6777L29.3223 0Z" fill="#C4C4C4"/>
<rect y="22" width="31" height="19" rx="2" fill="#CF2C22"/>
<path d="M4.7429 36.0938C5.24574 36.0938 5.67614 35.6761 5.6804 35.1562C5.67614 34.6449 5.24574 34.2273 4.7429 34.2273C4.22301 34.2273 3.80114 34.6449 3.8054 35.1562C3.80114 35.6761 4.22301 36.0938 4.7429 36.0938ZM7.27308 38.4545H8.8157V34.9688H8.87962C9.12251 35.446 9.62962 36.1151 10.7546 36.1151C12.2972 36.1151 13.4521 34.892 13.4521 32.7358C13.4521 30.554 12.2631 29.3693 10.7504 29.3693C9.59553 29.3693 9.11399 30.0639 8.87962 30.5369H8.79013V29.4545H7.27308V38.4545ZM8.78587 32.7273C8.78587 31.4574 9.33132 30.6349 10.3242 30.6349C11.3512 30.6349 11.8796 31.5085 11.8796 32.7273C11.8796 33.9545 11.3427 34.8494 10.3242 34.8494C9.33984 34.8494 8.78587 33.9972 8.78587 32.7273ZM17.2021 36.1151C18.3271 36.1151 18.8342 35.446 19.0771 34.9688H19.1708V36H20.6879V27.2727H19.141V30.5369H19.0771C18.8427 30.0639 18.3612 29.3693 17.2063 29.3693C15.6935 29.3693 14.5046 30.554 14.5046 32.7358C14.5046 34.892 15.6594 36.1151 17.2021 36.1151ZM17.6325 34.8494C16.614 34.8494 16.0771 33.9545 16.0771 32.7273C16.0771 31.5085 16.6055 30.6349 17.6325 30.6349C18.6254 30.6349 19.1708 31.4574 19.1708 32.7273C19.1708 33.9972 18.6168 34.8494 17.6325 34.8494ZM25.647 29.4545H24.2876V28.9389C24.2876 28.4276 24.5007 28.142 25.076 28.142C25.3189 28.142 25.5234 28.1974 25.6513 28.2358L25.9624 27.0426C25.7621 26.9744 25.3232 26.8636 24.7905 26.8636C23.6527 26.8636 22.745 27.5156 22.745 28.8366V29.4545H21.7777V30.6477H22.745V36H24.2876V30.6477H25.647V29.4545Z" fill="white"/>
</svg>
