<svg width="42" height="50" viewBox="0 0 42 50" fill="none" xmlns="http://www.w3.org/2000/svg">
<path fill-rule="evenodd" clip-rule="evenodd" d="M18 49H30C32.8567 49 34.8986 48.9979 36.4504 48.7892C37.9734 48.5845 38.8736 48.1974 39.5355 47.5355C40.1974 46.8736 40.5845 45.9734 40.7892 44.4504C40.9979 42.8986 41 40.8567 41 38V14.9706C41 12.4365 40.9823 11.448 40.6194 10.5719C40.2565 9.69575 39.57 8.98425 37.7782 7.19239L34.8076 4.22183C33.0157 2.42995 32.3043 1.7435 31.4281 1.3806C30.552 1.0177 29.5635 1 27.0294 1H18C15.1433 1 13.1014 1.00212 11.5496 1.21075C10.0266 1.41551 9.12638 1.80256 8.46447 2.46447C7.80256 3.12638 7.41551 4.02662 7.21075 5.54962C7.00212 7.10138 7 9.1433 7 12V38C7 40.8567 7.00212 42.8986 7.21075 44.4504C7.41551 45.9734 7.80256 46.8736 8.46447 47.5355C9.12638 48.1974 10.0266 48.5845 11.5496 48.7892C13.1014 48.9979 15.1433 49 18 49ZM30 50H18C12.3431 50 9.51472 50 7.75736 48.2426C6 46.4853 6 43.6569 6 38V12C6 6.34315 6 3.51472 7.75736 1.75736C9.51472 0 12.3431 0 18 0H27.0294C29.4819 0 30.7082 0 31.8108 0.456723C32.9134 0.913446 33.7805 1.78054 35.5147 3.51472L38.4853 6.48529C40.2194 8.21945 41.0866 9.08656 41.5433 10.1892C42 11.2918 42 12.5181 42 14.9706V38C42 43.6569 42 46.4853 40.2426 48.2426C38.4853 50 35.6569 50 30 50Z" fill="#C8C8C8"/>
<path d="M0 31C0 26.286 0 23.9289 1.46447 22.4645C2.92893 21 5.28595 21 10 21H26C30.714 21 33.0711 21 34.5355 22.4645C36 23.9289 36 26.286 36 31V32C36 36.714 36 39.0711 34.5355 40.5355C33.0711 42 30.714 42 26 42H10C5.28595 42 2.92893 42 1.46447 40.5355C0 39.0711 0 36.714 0 32V31Z" fill="#CF2C22"/>
<path d="M7.7429 36.0938C8.24574 36.0938 8.67614 35.6761 8.6804 35.1562C8.67614 34.6449 8.24574 34.2273 7.7429 34.2273C7.22301 34.2273 6.80114 34.6449 6.8054 35.1562C6.80114 35.6761 7.22301 36.0938 7.7429 36.0938ZM10.2731 38.4545H11.8157V34.9688H11.8796C12.1225 35.446 12.6296 36.1151 13.7546 36.1151C15.2972 36.1151 16.4521 34.892 16.4521 32.7358C16.4521 30.554 15.2631 29.3693 13.7504 29.3693C12.5955 29.3693 12.114 30.0639 11.8796 30.5369H11.7901V29.4545H10.2731V38.4545ZM11.7859 32.7273C11.7859 31.4574 12.3313 30.6349 13.3242 30.6349C14.3512 30.6349 14.8796 31.5085 14.8796 32.7273C14.8796 33.9545 14.3427 34.8494 13.3242 34.8494C12.3398 34.8494 11.7859 33.9972 11.7859 32.7273ZM20.2021 36.1151C21.3271 36.1151 21.8342 35.446 22.0771 34.9688H22.1708V36H23.6879V27.2727H22.141V30.5369H22.0771C21.8427 30.0639 21.3612 29.3693 20.2063 29.3693C18.6935 29.3693 17.5046 30.554 17.5046 32.7358C17.5046 34.892 18.6594 36.1151 20.2021 36.1151ZM20.6325 34.8494C19.614 34.8494 19.0771 33.9545 19.0771 32.7273C19.0771 31.5085 19.6055 30.6349 20.6325 30.6349C21.6254 30.6349 22.1708 31.4574 22.1708 32.7273C22.1708 33.9972 21.6168 34.8494 20.6325 34.8494ZM28.647 29.4545H27.2876V28.9389C27.2876 28.4276 27.5007 28.142 28.076 28.142C28.3189 28.142 28.5234 28.1974 28.6513 28.2358L28.9624 27.0426C28.7621 26.9744 28.3232 26.8636 27.7905 26.8636C26.6527 26.8636 25.745 27.5156 25.745 28.8366V29.4545H24.7777V30.6477H25.745V36H27.2876V30.6477H28.647V29.4545Z" fill="white"/>
</svg>
