<svg width="24" height="25" viewBox="0 0 24 25" fill="none" xmlns="http://www.w3.org/2000/svg">
<path d="M22.4243 13.1583C22.7539 12.7813 22.7539 12.2187 22.4243 11.8417L20.8424 10.0329C20.6621 9.82672 20.5742 9.55559 20.5994 9.28284L20.8196 6.89277C20.8656 6.39327 20.5345 5.93697 20.0453 5.82586L17.7103 5.29548C17.442 5.23454 17.2107 5.06575 17.0708 4.82886L15.8473 2.7574C15.5916 2.32432 15.0539 2.14862 14.5917 2.34708L12.3946 3.29057C12.1426 3.39875 11.8574 3.39875 11.6054 3.29057L9.40715 2.3466C8.94546 2.14835 8.40836 2.32346 8.15224 2.75574L6.93009 4.81852C6.78963 5.0556 6.55757 5.2242 6.28869 5.28453L3.95727 5.80765C3.46694 5.91767 3.13441 6.37448 3.1804 6.8749L3.40086 9.27402C3.42586 9.54608 3.33845 9.81653 3.15896 10.0225L1.57353 11.8418C1.24497 12.2189 1.24547 12.7807 1.5747 13.1571L3.1577 14.9672C3.33796 15.1733 3.42582 15.4443 3.40076 15.717L3.18018 18.1174C3.13429 18.6168 3.46542 19.073 3.95448 19.1841L6.29046 19.7147C6.55829 19.7755 6.7893 19.9438 6.9293 20.1801L8.15112 22.2424C8.40772 22.6755 8.94625 22.8503 9.40831 22.6505L11.6045 21.701C11.8569 21.5919 12.1432 21.5915 12.3959 21.7L14.5928 22.6434C15.0545 22.8417 15.5916 22.6665 15.8478 22.2343L17.0707 20.1701C17.2107 19.9338 17.4417 19.7655 17.7095 19.7047L20.0453 19.1741C20.5345 19.063 20.8656 18.6067 20.8196 18.1072L20.5994 15.7172C20.5742 15.4444 20.6621 15.1733 20.8424 14.9671L22.4243 13.1583ZM9.38 16.51L7 14.11C6.61 13.72 6.61 13.09 7 12.7L7.07 12.63C7.46 12.24 8.1 12.24 8.49 12.63L9.39221 13.5378C9.78265 13.9307 10.418 13.9314 10.8093 13.5393L15.25 9.09C15.64 8.7 16.28 8.7 16.67 9.09L16.74 9.16C17.13 9.55 17.13 10.18 16.74 10.57L10.82 16.51C10.41 16.9 9.78 16.9 9.38 16.51Z" fill="#7D2DDF"/>
</svg>
