<svg width="40" height="50" viewBox="0 0 40 50" fill="none" xmlns="http://www.w3.org/2000/svg">
<path fill-rule="evenodd" clip-rule="evenodd" d="M29.3223 0H4V50H40V10.6777L29.3223 0Z" fill="#C4C4C4"/>
<rect y="22" width="28" height="19" rx="2" fill="#16864C"/>
<path d="M4.7429 36.0938C5.24574 36.0938 5.67614 35.6761 5.6804 35.1562C5.67614 34.6449 5.24574 34.2273 4.7429 34.2273C4.22301 34.2273 3.80114 34.6449 3.8054 35.1562C3.80114 35.6761 4.22301 36.0938 4.7429 36.0938ZM8.53445 29.4545H6.89808L8.84126 32.7273L6.84695 36H8.48331L9.85547 33.6435L11.2404 36H12.864L10.8569 32.7273L12.8299 29.4545H11.1978L9.85547 31.8707L8.53445 29.4545ZM15.5657 27.2727H14.0231V36H15.5657V27.2727ZM22.3253 31.1847C22.1122 30.0767 21.2259 29.3693 19.6918 29.3693C18.1151 29.3693 17.0412 30.1449 17.0455 31.3551C17.0412 32.3097 17.6293 32.9403 18.8864 33.2003L20.0028 33.4347C20.6037 33.5668 20.8849 33.8097 20.8849 34.1804C20.8849 34.6278 20.3991 34.9645 19.6662 34.9645C18.9588 34.9645 18.4986 34.6577 18.3665 34.0696L16.8622 34.2145C17.054 35.4162 18.0639 36.1278 19.6705 36.1278C21.3068 36.1278 22.4616 35.2798 22.4659 34.0398C22.4616 33.1065 21.8608 32.5355 20.625 32.267L19.5085 32.0284C18.8438 31.8793 18.5795 31.6491 18.5838 31.2699C18.5795 30.8267 19.0696 30.5199 19.7131 30.5199C20.4247 30.5199 20.7997 30.9077 20.919 31.3381L22.3253 31.1847Z" fill="white"/>
</svg>
