<svg width="42" height="50" viewBox="0 0 42 50" fill="none" xmlns="http://www.w3.org/2000/svg">
<path fill-rule="evenodd" clip-rule="evenodd" d="M18 49H30C32.8567 49 34.8986 48.9979 36.4504 48.7892C37.9734 48.5845 38.8736 48.1974 39.5355 47.5355C40.1974 46.8736 40.5845 45.9734 40.7892 44.4504C40.9979 42.8986 41 40.8567 41 38V14.9706C41 12.4365 40.9823 11.448 40.6194 10.5719C40.2565 9.69575 39.57 8.98425 37.7782 7.19239L34.8076 4.22183C33.0157 2.42995 32.3043 1.7435 31.4281 1.3806C30.552 1.0177 29.5635 1 27.0294 1H18C15.1433 1 13.1014 1.00212 11.5496 1.21075C10.0266 1.41551 9.12638 1.80256 8.46447 2.46447C7.80256 3.12638 7.41551 4.02662 7.21075 5.54962C7.00212 7.10138 7 9.1433 7 12V38C7 40.8567 7.00212 42.8986 7.21075 44.4504C7.41551 45.9734 7.80256 46.8736 8.46447 47.5355C9.12638 48.1974 10.0266 48.5845 11.5496 48.7892C13.1014 48.9979 15.1433 49 18 49ZM30 50H18C12.3431 50 9.51472 50 7.75736 48.2426C6 46.4853 6 43.6569 6 38V12C6 6.34315 6 3.51472 7.75736 1.75736C9.51472 0 12.3431 0 18 0H27.0294C29.4819 0 30.7082 0 31.8108 0.456723C32.9134 0.913446 33.7805 1.78054 35.5147 3.51472L38.4853 6.48529C40.2194 8.21945 41.0866 9.08656 41.5433 10.1892C42 11.2918 42 12.5181 42 14.9706V38C42 43.6569 42 46.4853 40.2426 48.2426C38.4853 50 35.6569 50 30 50Z" fill="#C8C8C8"/>
<path d="M0 31C0 26.286 0 23.9289 1.46447 22.4645C2.92893 21 5.28595 21 10 21H26C30.714 21 33.0711 21 34.5355 22.4645C36 23.9289 36 26.286 36 31V32C36 36.714 36 39.0711 34.5355 40.5355C33.0711 42 30.714 42 26 42H10C5.28595 42 2.92893 42 1.46447 40.5355C0 39.0711 0 36.714 0 32V31Z" fill="#16864C"/>
<path d="M9.7429 36.0938C10.2457 36.0938 10.6761 35.6761 10.6804 35.1562C10.6761 34.6449 10.2457 34.2273 9.7429 34.2273C9.22301 34.2273 8.80114 34.6449 8.8054 35.1562C8.80114 35.6761 9.22301 36.0938 9.7429 36.0938ZM13.5344 29.4545H11.8981L13.8413 32.7273L11.8469 36H13.4833L14.8555 33.6435L16.2404 36H17.864L15.8569 32.7273L17.8299 29.4545H16.1978L14.8555 31.8707L13.5344 29.4545ZM20.5657 27.2727H19.0231V36H20.5657V27.2727ZM27.3253 31.1847C27.1122 30.0767 26.2259 29.3693 24.6918 29.3693C23.1151 29.3693 22.0412 30.1449 22.0455 31.3551C22.0412 32.3097 22.6293 32.9403 23.8864 33.2003L25.0028 33.4347C25.6037 33.5668 25.8849 33.8097 25.8849 34.1804C25.8849 34.6278 25.3991 34.9645 24.6662 34.9645C23.9588 34.9645 23.4986 34.6577 23.3665 34.0696L21.8622 34.2145C22.054 35.4162 23.0639 36.1278 24.6705 36.1278C26.3068 36.1278 27.4616 35.2798 27.4659 34.0398C27.4616 33.1065 26.8608 32.5355 25.625 32.267L24.5085 32.0284C23.8438 31.8793 23.5795 31.6491 23.5838 31.2699C23.5795 30.8267 24.0696 30.5199 24.7131 30.5199C25.4247 30.5199 25.7997 30.9077 25.919 31.3381L27.3253 31.1847Z" fill="white"/>
</svg>
