<svg width="41" height="50" viewBox="0 0 41 50" fill="none" xmlns="http://www.w3.org/2000/svg">
<path fill-rule="evenodd" clip-rule="evenodd" d="M17 49H29C31.8567 49 33.8986 48.9979 35.4504 48.7892C36.9734 48.5845 37.8736 48.1974 38.5355 47.5355C39.1974 46.8736 39.5845 45.9734 39.7892 44.4504C39.9979 42.8986 40 40.8567 40 38V14.9706C40 12.4365 39.9823 11.448 39.6194 10.5719C39.2565 9.69575 38.57 8.98425 36.7782 7.19239L33.8076 4.22183C32.0157 2.42995 31.3043 1.7435 30.4281 1.3806C29.552 1.0177 28.5635 1 26.0294 1H17C14.1433 1 12.1014 1.00212 10.5496 1.21075C9.02662 1.41551 8.12638 1.80256 7.46447 2.46447C6.80256 3.12638 6.41551 4.02662 6.21075 5.54962C6.00212 7.10138 6 9.1433 6 12V38C6 40.8567 6.00212 42.8986 6.21075 44.4504C6.41551 45.9734 6.80256 46.8736 7.46447 47.5355C8.12638 48.1974 9.02662 48.5845 10.5496 48.7892C12.1014 48.9979 14.1433 49 17 49ZM29 50H17C11.3431 50 8.51472 50 6.75736 48.2426C5 46.4853 5 43.6569 5 38V12C5 6.34315 5 3.51472 6.75736 1.75736C8.51472 0 11.3431 0 17 0H26.0294C28.4819 0 29.7082 0 30.8108 0.456723C31.9134 0.913446 32.7805 1.78054 34.5147 3.51472L37.4853 6.48529C39.2194 8.21945 40.0866 9.08656 40.5433 10.1892C41 11.2918 41 12.5181 41 14.9706V38C41 43.6569 41 46.4853 39.2426 48.2426C37.4853 50 34.6569 50 29 50Z" fill="#C8C8C8"/>
<path d="M0 31C0 26.286 0 23.9289 1.46447 22.4645C2.92893 21 5.28595 21 10 21H26C30.714 21 33.0711 21 34.5355 22.4645C36 23.9289 36 26.286 36 31V32C36 36.714 36 39.0711 34.5355 40.5355C33.0711 42 30.714 42 26 42H10C5.28595 42 2.92893 42 1.46447 40.5355C0 39.0711 0 36.714 0 32V31Z" fill="#16864C"/>
<path d="M5.7429 36.0938C6.24574 36.0938 6.67614 35.6761 6.6804 35.1562C6.67614 34.6449 6.24574 34.2273 5.7429 34.2273C5.22301 34.2273 4.80114 34.6449 4.8054 35.1562C4.80114 35.6761 5.22301 36.0938 5.7429 36.0938ZM9.53445 29.4545H7.89808L9.84126 32.7273L7.84695 36H9.48331L10.8555 33.6435L12.2404 36H13.864L11.8569 32.7273L13.8299 29.4545H12.1978L10.8555 31.8707L9.53445 29.4545ZM16.5657 27.2727H15.0231V36H16.5657V27.2727ZM23.3253 31.1847C23.1122 30.0767 22.2259 29.3693 20.6918 29.3693C19.1151 29.3693 18.0412 30.1449 18.0455 31.3551C18.0412 32.3097 18.6293 32.9403 19.8864 33.2003L21.0028 33.4347C21.6037 33.5668 21.8849 33.8097 21.8849 34.1804C21.8849 34.6278 21.3991 34.9645 20.6662 34.9645C19.9588 34.9645 19.4986 34.6577 19.3665 34.0696L17.8622 34.2145C18.054 35.4162 19.0639 36.1278 20.6705 36.1278C22.3068 36.1278 23.4616 35.2798 23.4659 34.0398C23.4616 33.1065 22.8608 32.5355 21.625 32.267L20.5085 32.0284C19.8438 31.8793 19.5795 31.6491 19.5838 31.2699C19.5795 30.8267 20.0696 30.5199 20.7131 30.5199C21.4247 30.5199 21.7997 30.9077 21.919 31.3381L23.3253 31.1847ZM25.9993 29.4545H24.3629L26.3061 32.7273L24.3118 36H25.9482L27.3203 33.6435L28.7053 36H30.3288L28.3217 32.7273L30.2947 29.4545H28.6626L27.3203 31.8707L25.9993 29.4545Z" fill="white"/>
</svg>
